<svg id="ab19dc86-82e3-4565-97dc-e70c0349cda6" data-name="Layer 1" xmlns="http://www.w3.org/2000/svg" viewBox="0 0 53 53"><defs><style>.bed1fec2-ba3d-4ddb-a1c2-e22def73cb78{fill:#999;}</style></defs><path class="bed1fec2-ba3d-4ddb-a1c2-e22def73cb78" d="M38.54,0H14.46A14.48,14.48,0,0,0,0,14.46V38.54A14.47,14.47,0,0,0,6.19,50.4a14.11,14.11,0,0,0,2.24,1.28,14.33,14.33,0,0,0,6,1.32H38.54a14.33,14.33,0,0,0,6-1.32,14.11,14.11,0,0,0,2.24-1.28A14.47,14.47,0,0,0,53,38.54V14.46A14.48,14.48,0,0,0,38.54,0ZM51,38.54a12.39,12.39,0,0,1-4.19,9.29,12.56,12.56,0,0,1-2,1.42A12.33,12.33,0,0,1,38.54,51H14.46a12.33,12.33,0,0,1-6.26-1.7,12.56,12.56,0,0,1-2-1.42,12.39,12.39,0,0,1-4.19-9.29V14.46A12.43,12.43,0,0,1,14.46,2.05H38.54A12.43,12.43,0,0,1,51,14.46Z"/><path class="bed1fec2-ba3d-4ddb-a1c2-e22def73cb78" d="M26.5,13a10.1,10.1,0,0,0-2.7,19.83h0a10.31,10.31,0,0,0,5.4,0h0A10.1,10.1,0,0,0,26.5,13Zm0,18.14a8,8,0,1,1,8-8A8.06,8.06,0,0,1,26.5,31.16Z"/><path class="bed1fec2-ba3d-4ddb-a1c2-e22def73cb78" d="M46.76,47.83a15.47,15.47,0,0,0-5.95-10.32A22.17,22.17,0,0,0,29.2,32.85h0a24.38,24.38,0,0,0-5.4,0h0a22.17,22.17,0,0,0-11.61,4.66A15.47,15.47,0,0,0,6.24,47.83a13,13,0,0,0-.09,1.53c0,.35,0,.69,0,1a14.11,14.11,0,0,0,2.24,1.28,11.85,11.85,0,0,1-.23-2.32v-.11c.07-8,8.26-14.5,18.3-14.5s18.23,6.5,18.3,14.5v.11a11.85,11.85,0,0,1-.23,2.32,14.11,14.11,0,0,0,2.24-1.28c0-.35,0-.69,0-1A13,13,0,0,0,46.76,47.83Z"/></svg>