<svg id="fa2e8069-b902-4122-b2c4-5d12d9aaf978" data-name="Layer 1" xmlns="http://www.w3.org/2000/svg" viewBox="0 0 54 54"><defs><style>.b0a90f57-0644-4e2f-a7d4-91b142ea33d2,.f817590e-fa19-4b42-8187-a0e334ca5298{fill:#e6e6e6;}.f817590e-fa19-4b42-8187-a0e334ca5298{stroke:#e6e6e6;stroke-miterlimit:10;}</style></defs><path class="f817590e-fa19-4b42-8187-a0e334ca5298" d="M39,.5H15A14.48,14.48,0,0,0,.5,15V39A14.47,14.47,0,0,0,6.69,50.9a14.11,14.11,0,0,0,2.24,1.28,14.33,14.33,0,0,0,6,1.32H39a14.33,14.33,0,0,0,6-1.32,14.11,14.11,0,0,0,2.24-1.28A14.47,14.47,0,0,0,53.5,39V15A14.48,14.48,0,0,0,39,.5ZM51.45,39a12.39,12.39,0,0,1-4.19,9.29,12.56,12.56,0,0,1-2,1.42A12.33,12.33,0,0,1,39,51.45H15a12.33,12.33,0,0,1-6.26-1.7,12.56,12.56,0,0,1-2-1.42A12.39,12.39,0,0,1,2.55,39V15A12.43,12.43,0,0,1,15,2.55H39A12.43,12.43,0,0,1,51.45,15Z"/><polygon class="b0a90f57-0644-4e2f-a7d4-91b142ea33d2" points="40.5 24.5 28.5 24.5 28.5 13.5 24.5 13.5 24.5 24.5 13.5 24.5 13.5 28.5 24.5 28.5 24.5 40.5 28.5 40.5 28.5 28.5 40.5 28.5 40.5 24.5"/></svg>